Coordinates
nRows=134
nColumns=2
inDegrees=yes
endheader
time	ankle_angle_r	
3.37478	  9.567261	
3.43728	  9.613037	
3.49978	  9.552002	
3.56227	  9.674072	
3.62477	  9.658813	
3.68726	  9.613037	
3.74976	  9.674072	
3.81226	  9.506226	
3.87475	  9.582520	
3.93725	  9.613037	
3.99974	  9.552002	
4.06224	  9.658813	
4.12474	  9.582520	
4.18723	  9.506226	
4.24973	  9.597778	
4.31222	  9.414673	
4.37472	  9.475708	
4.43722	  9.521484	
4.49971	  9.490967	
4.56221	  9.643555	
4.6247	  9.567261	
4.6872	  9.536743	
4.7497	  9.628296	
4.81219	  9.460449	
4.87469	  9.552002	
4.93718	  9.506226	
4.99968	  9.506226	
5.06218	  9.613037	
5.12467	  9.582520	
5.18717	  9.521484	
5.24966	  9.613037	
5.31216	  9.475708	
5.37466	  9.506226	
5.43715	  9.536743	
5.49965	  9.490967	
5.56214	  9.689331	
5.62464	  9.597778	
5.68714	  9.536743	
5.74963	  9.552002	
5.81213	  9.445190	
5.87462	  9.521484	
5.93712	  9.521484	
5.99962	  9.445190	
6.06211	  9.597778	
6.12461	  9.521484	
6.1871	  9.567261	
6.2496	  9.552002	
6.3121	  9.460449	
6.37459	  9.597778	
6.43709	  9.567261	
6.49958	  9.536743	
6.56208	  9.689331	
6.62458	  9.628296	
6.68707	  9.628296	
6.74957	  9.674072	
6.81206	  9.536743	
6.87456	  9.613037	
6.93706	  9.567261	
6.99955	  9.536743	
7.06205	  9.658813	
7.12454	  9.597778	
7.18704	  9.643555	
7.24954	  9.689331	
7.31203	  9.536743	
7.37453	  9.582520	
7.43702	  9.582520	
7.49952	  9.536743	
7.56202	  9.643555	
7.62451	  9.597778	
7.68701	  9.658813	
7.7495	  9.613037	
7.812	  9.536743	
7.8745	  9.597778	
7.93699	  9.536743	
7.99949	  9.567261	
8.06198	  9.613037	
8.12448	  9.506226	
8.18698	  9.521484	
8.24947	  9.552002	
8.31197	  9.521484	
8.37446	  9.536743	
8.43696	  9.429932	
8.49946	  9.536743	
8.56195	  9.552002	
8.62445	  9.567261	
8.68694	  9.506226	
8.74944	  9.597778	
8.81194	  9.490967	
8.87443	  9.521484	
8.93693	  9.506226	
8.99942	  9.552002	
9.06192	  9.536743	
9.12442	  9.582520	
9.18691	  9.521484	
9.24941	  9.506226	
9.3119	  9.490967	
9.3744	  9.521484	
9.4369	  9.490967	
9.49939	  9.536743	
9.56189	  9.613037	
9.62438	  9.567261	
9.68688	  9.597778	
9.74938	  9.506226	
9.81187	  9.460449	
9.87437	  9.490967	
9.93686	  9.445190	
9.99936	  9.628296	
10.0619	  9.552002	
10.1244	  9.552002	
10.1868	  9.613037	
10.2493	  9.582520	
10.3118	  9.582520	
10.3743	  9.567261	
10.4368	  9.552002	
10.4993	  9.643555	
10.5618	  9.643555	
10.6243	  9.597778	
10.6868	  9.674072	
10.7493	  9.536743	
10.8118	  9.582520	
10.8743	  9.597778	
10.9368	  9.536743	
10.9993	  9.689331	
11.0618	  9.658813	
11.1243	  9.613037	
11.1868	  9.689331	
11.2493	  9.536743	
11.3118	  9.506226	
11.3743	  9.597778	
11.4368	  9.460449	
11.4993	  9.704590	
11.5618	  9.536743	
11.6243	  9.506226	
11.6868	  9.613037	
